<svg aria-hidden="true" style="position:absolute;width:0;height:0;overflow:hidden" xmlns="http://www.w3.org/2000/svg">
<defs>
<symbol id="icon-left-frame"  viewBox="0 0 23 32"><path  d="M13.422 29.221.805 16.768 13.422 4.315h7.899L8.649 16.768l12.672 12.453h-7.899z"/></symbol>
<symbol id="icon-main-logo" viewBox="0 0 32 32"><path d="M16 30.173c-.893 0-1.8-.2-2.507-.613L6.16 25.333c-2.987-2.013-3.173-2.32-3.173-5.48v-7.707c0-3.16.173-3.467 3.107-5.453l7.387-4.267c1.4-.813 3.6-.813 5 0l7.36 4.24c2.987 2.013 3.173 2.32 3.173 5.48v7.693c0 3.16-.173 3.467-3.107 5.453l-7.387 4.267c-.72.413-1.627.613-2.52.613zm0-26.347c-.56 0-1.107.107-1.493.333l-7.333 4.24c-2.173 1.467-2.173 1.467-2.173 3.747v7.693c0 2.28 0 2.28 2.227 3.787l7.28 4.2c.787.453 2.213.453 3 0l7.333-4.24c2.16-1.467 2.16-1.467 2.16-3.747v-7.693c0-2.28 0-2.28-2.227-3.787l-7.28-4.2c-.387-.227-.933-.333-1.493-.333z"/><path d="M16 21c-2.76 0-5-2.24-5-5s2.24-5 5-5 5 2.24 5 5-2.24 5-5 5zm0-8c-1.653 0-3 1.347-3 3s1.347 3 3 3 3-1.347 3-3-1.347-3-3-3z"/></symbol>
<symbol id="icon-right-frame" viewBox="0 0 23 32"><path  d="M1.573 4.315h7.899l12.617 12.453L9.472 29.221H1.573l12.672-12.453L1.573 4.315z"/></symbol>
<symbol id="icon-vector" viewBox="0 0 19 32"><path fill="none" stroke-linejoin="round" stroke-linecap="round" stroke-width="6.4" d="M3.2 28.8 16 16 3.2 3.2"/>
</symbol>
<symbol id="icon-square" viewBox="0 0 32 32">
<path fill="none" stroke-width="1" d="M20 30.333h-8c-7.24 0-10.333-3.093-10.333-10.333v-8c0-7.24 3.093-10.333 10.333-10.333h8c7.24 0 10.333 3.093 10.333 10.333v8c0 7.24-3.093 10.333-10.333 10.333zM12 3.667c-6.147 0-8.333 2.187-8.333 8.333v8c0 6.147 2.187 8.333 8.333 8.333h8c6.147 0 8.333-2.187 8.333-8.333v-8c0-6.147-2.187-8.333-8.333-8.333h-8z"></path>
<path fill="none" stroke-width="1" d="M16.001 17.44c-0.173 0-0.347-0.040-0.507-0.133l-7.067-4.080c-0.48-0.28-0.64-0.893-0.36-1.36 0.28-0.48 0.893-0.64 1.36-0.36l6.56 3.8 6.52-3.773c0.48-0.28 1.093-0.107 1.36 0.36s0.107 1.093-0.36 1.36l-7.013 4.053c-0.147 0.080-0.32 0.133-0.493 0.133z"></path>
<path fill="none" stroke-width="1" d="M16 24.693c-0.547 0-1-0.453-1-1v-7.253c0-0.547 0.453-1 1-1s1 0.453 1 1v7.253c0 0.547-0.453 1-1 1z"></path>
<path fill="none" stroke-width="1" d="M16 25c-0.773 0-1.533-0.173-2.147-0.507l-4.267-2.373c-1.28-0.707-2.267-2.4-2.267-3.867v-4.52c0-1.453 1-3.147 2.267-3.867l4.267-2.373c1.227-0.68 3.067-0.68 4.293 0l4.267 2.373c1.28 0.707 2.267 2.4 2.267 3.867v4.52c0 1.453-1 3.147-2.267 3.867l-4.267 2.373c-0.613 0.347-1.373 0.507-2.147 0.507zM16 9c-0.44 0-0.867 0.080-1.173 0.253l-4.267 2.373c-0.653 0.36-1.24 1.373-1.24 2.107v4.52c0 0.747 0.587 1.747 1.24 2.107l4.267 2.373c0.613 0.347 1.733 0.347 2.347 0l4.267-2.373c0.653-0.36 1.24-1.373 1.24-2.107v-4.52c0-0.747-0.587-1.747-1.24-2.107l-4.267-2.373c-0.307-0.173-0.733-0.253-1.173-0.253z"></path>
</symbol>
<symbol id="icon-discount" viewBox="0 0 32 32">
<path fill="none" stroke-linejoin="round" stroke-linecap="round" stroke-width="1" d="M16 30.334a3.06 3.06 0 0 1-2.213-.92l-2.027-2.027c-.16-.16-.587-.333-.8-.333H8.08a3.13 3.13 0 0 1-3.133-3.133v-2.88c0-.213-.173-.64-.333-.8l-2.027-2.027c-.587-.587-.92-1.373-.92-2.213s.32-1.627.92-2.213l2.027-2.027c.16-.16.333-.587.333-.8v-2.88A3.13 3.13 0 0 1 8.08 4.948h2.88c.213 0 .64-.173.8-.333l2.027-2.027c1.173-1.173 3.253-1.173 4.427 0l2.027 2.027c.16.16.587.333.8.333h2.88a3.13 3.13 0 0 1 3.133 3.133v2.88c0 .213.173.64.333.8l2.027 2.027c.587.587.92 1.373.92 2.213s-.32 1.627-.92 2.213l-2.027 2.027c-.16.16-.333.587-.333.8v2.88a3.13 3.13 0 0 1-3.133 3.133h-2.88c-.213 0-.64.173-.8.333l-2.027 2.027c-.587.6-1.373.92-2.213.92zM6.027 18.827c.533.533.92 1.467.92 2.213v2.88c0 .627.507 1.133 1.133 1.133h2.88c.747 0 1.68.387 2.213.92L15.2 28a1.16 1.16 0 0 0 1.6 0l2.027-2.027c.533-.533 1.467-.92 2.213-.92h2.88c.627 0 1.133-.507 1.133-1.133v-2.88c0-.747.387-1.68.92-2.213L28 16.8c.213-.213.333-.493.333-.8s-.12-.587-.333-.8l-2.027-2.027c-.533-.533-.92-1.467-.92-2.213V8.08c0-.627-.507-1.133-1.133-1.133h-2.88c-.747 0-1.68-.387-2.213-.92L16.8 4a1.16 1.16 0 0 0-1.6 0l-2.027 2.027c-.533.533-1.467.92-2.213.92H8.08c-.627 0-1.133.507-1.133 1.133v2.88c0 .747-.387 1.68-.92 2.213L4 15.2c-.213.213-.333.493-.333.8s.12.587.333.8l2.027 2.027z"/>
<path fill="none" stroke-linejoin="round" stroke-linecap="round" stroke-width="1" d="M20 21.333c-.747 0-1.347-.6-1.347-1.333s.6-1.333 1.333-1.333 1.333.6 1.333 1.333-.587 1.333-1.32 1.333zM12.013 13.333c-.747 0-1.347-.6-1.347-1.333s.6-1.333 1.333-1.333 1.333.6 1.333 1.333-.587 1.333-1.32 1.333zM11.999 20.999a.99.99 0 0 1-.707-.293 1.005 1.005 0 0 1 0-1.413l8-8c.387-.387 1.027-.387 1.413 0s.387 1.027 0 1.413l-8 8c-.2.2-.453.293-.707.293z"/>
</symbol>
<symbol id="icon-key" viewBox="0 0 32 32">
<path fill="none" stroke-linejoin="round" stroke-linecap="round" stroke-width="2" d="M12 29.333h8c6.667 0 9.333-2.667 9.333-9.333v-8c0-6.667-2.667-9.333-9.333-9.333h-8c-6.667 0-9.333 2.667-9.333 9.333v8c0 6.667 2.667 9.333 9.333 9.333z"/>
<path fill="none" stroke-linejoin="round" stroke-linecap="round" stroke-miterlimit="10" stroke-width="2" d="M21.707 18.147a5.529 5.529 0 0 1-5.573 1.373l-3.453 3.44c-.24.253-.733.413-1.093.36l-1.6-.213c-.533-.067-1.013-.573-1.093-1.093l-.213-1.6c-.053-.347.12-.84.36-1.093l3.44-3.44a5.558 5.558 0 0 1 1.373-5.573c2.16-2.16 5.68-2.16 7.853 0 2.16 2.147 2.16 5.667 0 7.84zM13.933 21.707 12.8 20.56"/>
<path fill="none" stroke-linejoin="round" stroke-linecap="round" stroke-width="2.667" d="M17.859 14.267h.012"/>
</symbol>
<symbol id="icon-message" viewBox="0 0 32 32">
<path fill="none" stroke-linejoin="round" stroke-linecap="round" stroke-width="1" d="M10.667 29.76a2.35 2.35 0 0 1-1.107-.28c-.76-.4-1.227-1.2-1.227-2.053v-1.893c-4.027-.413-6.667-3.373-6.667-7.613v-8c0-4.587 3.08-7.667 7.667-7.667h13.333c4.587 0 7.667 3.08 7.667 7.667v8c0 4.587-3.08 7.667-7.667 7.667h-5.027l-5.68 3.787c-.387.253-.84.387-1.293.387zM9.333 4.24c-3.44 0-5.667 2.227-5.667 5.667v8c0 3.44 2.227 5.667 5.667 5.667.547 0 1 .453 1 1v2.84c0 .173.107.253.173.293s.2.08.347-.013l5.933-3.947c.16-.107.36-.173.56-.173h5.333c3.44 0 5.667-2.227 5.667-5.667v-8c0-3.44-2.227-5.667-5.667-5.667H9.332z"/>
<path fill="none" stroke-linejoin="round" stroke-linecap="round" stroke-width="1" d="M16 16.147c-.547 0-1-.453-1-1v-.28c0-1.547 1.133-2.307 1.56-2.6.493-.333.653-.56.653-.907 0-.667-.547-1.213-1.213-1.213s-1.213.547-1.213 1.213c0 .547-.453 1-1 1s-1-.453-1-1c0-1.773 1.44-3.213 3.213-3.213s3.213 1.44 3.213 3.213c0 1.52-1.12 2.28-1.533 2.56-.52.347-.68.573-.68.947v.28c0 .56-.453 1-1 1zM16 19.467c-.56 0-1-.453-1-1s.453-1 1-1c.547 0 1 .453 1 1s-.44 1-1 1z"/>
</symbol>
<symbol id="icon-user" viewBox="0 0 32 32">
<path fill="none" stroke-linejoin="round" stroke-width="1,5" d="M20.001 30.333h-8c-1.76 0-3.227-.173-4.467-.547a1.022 1.022 0 0 1-.72-1.04c.333-3.987 4.373-7.12 9.187-7.12s8.84 3.12 9.187 7.12a.983.983 0 0 1-.72 1.04c-1.24.373-2.707.547-4.467.547zM8.961 28.08c.88.173 1.88.253 3.04.253h8c1.16 0 2.16-.08 3.04-.253-.707-2.56-3.627-4.453-7.04-4.453s-6.333 1.893-7.04 4.453z"/>
<path fill="none" stroke-linejoin="round" stroke-linecap="round" stroke-width="2" d="M20 2.667h-8c-6.667 0-9.333 2.667-9.333 9.333v8c0 5.04 1.52 7.8 5.147 8.827.293-3.467 3.853-6.2 8.187-6.2s7.893 2.733 8.187 6.2C27.815 27.8 29.335 25.04 29.335 20v-8c0-6.667-2.667-9.333-9.333-9.333zm-4 16.226c-2.64 0-4.773-2.147-4.773-4.787S13.36 9.333 16 9.333c2.64 0 4.773 2.133 4.773 4.773S18.64 18.893 16 18.893z"/>
<path fill="none" stroke-linejoin="round" stroke-width="0" d="M16 19.893c-3.187 0-5.773-2.6-5.773-5.787S12.814 8.333 16 8.333c3.187 0 5.773 2.587 5.773 5.773S19.186 19.893 16 19.893zm0-9.56a3.778 3.778 0 0 0-3.773 3.773c0 2.093 1.693 3.787 3.773 3.787a3.78 3.78 0 0 0 0-7.56z"/>
</symbol>
<symbol id="icon-wallet" viewBox="0 0 32 32">
<path fill="none" stroke-linejoin="round" stroke-linecap="round" stroke-width="2" d="M14.335 22.481v2.707c0 2.293-2.133 4.147-4.76 4.147s-4.773-1.853-4.773-4.147v-2.707c0 2.293 2.133 3.92 4.773 3.92 2.627 0 4.76-1.64 4.76-3.92z"/>
<path fill="none" stroke-linejoin="round" stroke-linecap="round" stroke-width="2" d="M14.333 18.813c0 .667-.187 1.28-.507 1.813-.787 1.293-2.4 2.107-4.267 2.107s-3.48-.827-4.267-2.107a3.498 3.498 0 0 1-.507-1.813c0-1.147.533-2.173 1.387-2.92.867-.76 2.053-1.213 3.373-1.213s2.507.467 3.373 1.213c.88.733 1.413 1.773 1.413 2.92z"/>
<path fill="none" stroke-linejoin="round" stroke-linecap="round" stroke-width="2" d="M14.335 18.813v3.667c0 2.293-2.133 3.92-4.76 3.92s-4.773-1.64-4.773-3.92v-3.667c0-2.293 2.133-4.147 4.773-4.147 1.32 0 2.507.467 3.373 1.213.853.747 1.387 1.787 1.387 2.933zM29.333 14.627v2.747A1.37 1.37 0 0 1 28 18.734h-2.613c-1.44 0-2.76-1.053-2.88-2.493-.08-.84.24-1.627.8-2.173a2.655 2.655 0 0 1 1.92-.8H28a1.369 1.369 0 0 1 1.333 1.36z"/>
<path fill="none" stroke-linejoin="round" stroke-linecap="round" stroke-width="2" d="M2.667 14v-2.667c0-3.627 2.187-6.16 5.587-6.587.347-.053.707-.08 1.08-.08h12c.347 0 .68.013 1 .067 3.44.4 5.667 2.947 5.667 6.6v1.933h-2.773c-.747 0-1.427.293-1.92.8a2.678 2.678 0 0 0-.8 2.173c.12 1.44 1.44 2.493 2.88 2.493h2.613v1.933c0 4-2.667 6.667-6.667 6.667h-3.333"/>
</symbol>
<symbol id="icon-Emoji" viewBox="0 0 32 32">
<path fill="#fac036" style="fill: var(--color1, #fac036)" d="M9.777 19.89c-0.275 0.258-0.553-0.050-0.553-0.050s-4.62-4.895-4.92-5.115c-0.422-0.307-1.327-0.79-2.232 0.143-0.377 0.387-0.993 1.25 0.15 2.64 0.248 0.3 7.445 7.885 7.865 8.295 0 0 3.325 3.235 5.338 4.453 0.557 0.337 1.185 0.695 1.918 0.945 0.73 0.25 1.555 0.422 2.425 0.422 0.87 0.010 1.773-0.157 2.625-0.47 0.852-0.315 1.648-0.773 2.37-1.3 0.177-0.135 0.358-0.27 0.525-0.415l0.485-0.4c0.337-0.282 0.652-0.58 0.955-0.883 0.608-0.605 1.155-1.253 1.637-1.915 0.48-0.665 0.887-1.352 1.212-2.038s0.552-1.372 0.69-2.023c0.145-0.648 0.185-1.26 0.163-1.795-0.005-0.535-0.113-0.992-0.2-1.358-0.1-0.365-0.207-0.637-0.293-0.817-0.082-0.18-0.128-0.275-0.128-0.275v0c-0.115-0.323-0.225-0.63-0.323-0.907-0.275-0.782-0.593-1.66-0.922-2.563-0.14-0.383-0.205-0.555-0.205-0.555l0.003 0.008c-1.212-3.293-2.515-6.685-2.515-6.685-0.198-0.598-0.925-0.805-1.46-0.42-1.545 1.11-2.018 2.73-1.473 4.457l1.398 3.83c0.198 0.428-0.348 0.923-0.712 0.625-1.148-0.935-3.575-3.513-3.575-3.513-1.085-1.040-7.207-7.317-7.617-7.7-0.825-0.768-1.865-1.163-2.658-0.58-0.81 0.595-1.035 1.515-0.252 2.52 0.213 0.272 6.4 6.81 6.4 6.81 0.36 0.377-0.065 0.912-0.463 0.545 0 0-7.697-8.030-8.045-8.405-0.787-0.855-2.053-1.043-2.803-0.338-0.732 0.688-0.715 1.815 0.085 2.7 0.255 0.28 5.677 6.005 7.848 8.35 0.145 0.157 0.258 0.367 0.043 0.565-0.002 0.003-0.22 0.238-0.5-0.063-0.59-0.63-6.482-6.77-6.81-7.102-0.753-0.765-1.763-1.127-2.575-0.383-0.74 0.678-0.86 1.86-0.010 2.695l7.137 7.545c0 0 0.232 0.275-0.027 0.517z"></path>
<path fill="#e48c15" style="fill: var(--color2, #e48c15)" d="M21.365 13.6l0.602 0.645c0 0-3.448 3.327-1.098 8.437 0 0 0.305 0.648-0.095 0.755 0 0-0.35 0.195-0.75-0.8 0-0.003-2.372-4.855 1.34-9.037z"></path>
<path fill="none" stroke="#444" style="stroke: var(--color3, #444)" stroke-linejoin="miter" stroke-linecap="round" stroke-miterlimit="10" stroke-width="1" d="M15.82 2.55c0 0 1.453 0.22 2.797 1.66 1.345 1.442 1.968 3.295 1.968 3.295"></path>
<path fill="none" stroke="#444" style="stroke: var(--color3, #444)" stroke-linejoin="miter" stroke-linecap="round" stroke-miterlimit="10" stroke-width="1" d="M19.36 0.875c0 0 1.218 0.613 2.157 2.125s1.168 3.263 1.168 3.263"></path>
<path fill="none" stroke="#444" style="stroke: var(--color3, #444)" stroke-linejoin="miter" stroke-linecap="round" stroke-miterlimit="10" stroke-width="1" d="M8.928 27.683c0 0-1.465 0.098-3.088-1.023s-2.63-2.795-2.63-2.795"></path>
<path fill="none" stroke="#444" style="stroke: var(--color3, #444)" stroke-linejoin="miter" stroke-linecap="round" stroke-miterlimit="10" stroke-width="1" d="M7.883 30.14c0 0-1.36 0.058-2.92-0.805s-2.61-2.28-2.61-2.28"></path>
</symbol>
<symbol id="icon-search" viewBox="0 0 32 32">
<path fill="none" stroke="#7e7e7e" style="stroke: var(--color1, #7e7e7e)" stroke-linejoin="round" stroke-linecap="round" stroke-miterlimit="4" stroke-width="2.6667" d="M14.667 25.333c5.891 0 10.667-4.776 10.667-10.667s-4.776-10.667-10.667-10.667c-5.891 0-10.667 4.776-10.667 10.667s4.776 10.667 10.667 10.667z"></path>
<path fill="none" stroke="#7e7e7e" style="stroke: var(--color1, #7e7e7e)" stroke-linejoin="round" stroke-linecap="round" stroke-miterlimit="4" stroke-width="2.6667" d="M28 28l-5.8-5.8"></path>
</symbol>
<symbol id="close-menu" viewBox="0 0 32 32">
<path d="M31.439 3.166l-3.166-3.166-12.554 12.552-12.552-12.552-3.166 3.166 12.552 12.552-12.552 12.554 3.166 3.166 12.552-12.554 12.554 12.554 3.166-3.166-12.554-12.554 12.554-12.552z"></path>
</symbol>
<symbol id="open-menu" viewBox="0 0 48 32">
<path d="M0 5.334v-5.334h48v5.334h-48zM0 18.666h48v-5.332h-48v5.332zM0 32h48v-5.334h-48v5.334z"></path>
</symbol>
</defs>
</svg>