<!-- Generated by IcoMoon.io -->
<svg version="1.1" xmlns="http://www.w3.org/2000/svg" width="32" height="32" viewBox="0 0 32 32">
<title>icon-Emoji</title>
<path fill="#fac036" d="M9.777 19.89c-0.275 0.258-0.553-0.050-0.553-0.050s-4.62-4.895-4.92-5.115c-0.422-0.307-1.327-0.79-2.232 0.143-0.377 0.387-0.993 1.25 0.15 2.64 0.248 0.3 7.445 7.885 7.865 8.295 0 0 3.325 3.235 5.338 4.453 0.557 0.337 1.185 0.695 1.918 0.945 0.73 0.25 1.555 0.422 2.425 0.422 0.87 0.010 1.773-0.157 2.625-0.47 0.852-0.315 1.648-0.773 2.37-1.3 0.177-0.135 0.358-0.27 0.525-0.415l0.485-0.4c0.337-0.282 0.652-0.58 0.955-0.883 0.608-0.605 1.155-1.253 1.637-1.915 0.48-0.665 0.887-1.352 1.212-2.038s0.552-1.372 0.69-2.023c0.145-0.648 0.185-1.26 0.163-1.795-0.005-0.535-0.113-0.992-0.2-1.358-0.1-0.365-0.207-0.637-0.293-0.817-0.082-0.18-0.128-0.275-0.128-0.275v0c-0.115-0.323-0.225-0.63-0.323-0.907-0.275-0.782-0.593-1.66-0.922-2.563-0.14-0.383-0.205-0.555-0.205-0.555l0.003 0.008c-1.212-3.293-2.515-6.685-2.515-6.685-0.198-0.598-0.925-0.805-1.46-0.42-1.545 1.11-2.018 2.73-1.473 4.457l1.398 3.83c0.198 0.428-0.348 0.923-0.712 0.625-1.148-0.935-3.575-3.513-3.575-3.513-1.085-1.040-7.207-7.317-7.617-7.7-0.825-0.768-1.865-1.163-2.658-0.58-0.81 0.595-1.035 1.515-0.252 2.52 0.213 0.272 6.4 6.81 6.4 6.81 0.36 0.377-0.065 0.912-0.463 0.545 0 0-7.697-8.030-8.045-8.405-0.787-0.855-2.053-1.043-2.803-0.338-0.732 0.688-0.715 1.815 0.085 2.7 0.255 0.28 5.677 6.005 7.848 8.35 0.145 0.157 0.258 0.367 0.043 0.565-0.002 0.003-0.22 0.238-0.5-0.063-0.59-0.63-6.482-6.77-6.81-7.102-0.753-0.765-1.763-1.127-2.575-0.383-0.74 0.678-0.86 1.86-0.010 2.695l7.137 7.545c0 0 0.232 0.275-0.027 0.517z"></path>
<path fill="#e48c15" d="M21.365 13.6l0.602 0.645c0 0-3.448 3.327-1.098 8.437 0 0 0.305 0.648-0.095 0.755 0 0-0.35 0.195-0.75-0.8 0-0.003-2.372-4.855 1.34-9.037z"></path>
<path fill="none" stroke="#444" stroke-linejoin="miter" stroke-linecap="round" stroke-miterlimit="10" stroke-width="1" d="M15.82 2.55c0 0 1.453 0.22 2.797 1.66 1.345 1.442 1.968 3.295 1.968 3.295"></path>
<path fill="none" stroke="#444" stroke-linejoin="miter" stroke-linecap="round" stroke-miterlimit="10" stroke-width="1" d="M19.36 0.875c0 0 1.218 0.613 2.157 2.125s1.168 3.263 1.168 3.263"></path>
<path fill="none" stroke="#444" stroke-linejoin="miter" stroke-linecap="round" stroke-miterlimit="10" stroke-width="1" d="M8.928 27.683c0 0-1.465 0.098-3.088-1.023s-2.63-2.795-2.63-2.795"></path>
<path fill="none" stroke="#444" stroke-linejoin="miter" stroke-linecap="round" stroke-miterlimit="10" stroke-width="1" d="M7.883 30.14c0 0-1.36 0.058-2.92-0.805s-2.61-2.28-2.61-2.28"></path>
</svg>
